<?xml version="1.0" encoding="iso-8859-1"?>
<!-- Generator: Adobe Illustrator 18.0.0, SVG Export Plug-In . SVG Version: 6.00 Build 0)  -->
<!DOCTYPE svg PUBLIC "-//W3C//DTD SVG 1.1//EN" "http://www.w3.org/Graphics/SVG/1.1/DTD/svg11.dtd">
<svg version="1.1" id="Capa_1" xmlns="http://www.w3.org/2000/svg" xmlns:xlink="http://www.w3.org/1999/xlink" x="0px" y="0px"
	 viewBox="0 0 59 59" style="enable-background:new 0 0 59 59;" xml:space="preserve">
<path d="M0,0v59h59V0H0z M29.953,38.108c-2.277-1.156-4.961-1.976-7.815-2.482c-0.514-2.391-1.258-4.634-2.246-6.579
	c-0.925-1.821-1.621-3.919-2.103-6.155c4.449-0.276,8.757-1.269,12.165-3c3.094-1.571,6.978-2.492,11.008-2.785
	c-0.21,4.361-1.161,8.608-2.853,11.94c-1.573,3.097-2.54,6.937-2.911,10.95C33.304,39.529,31.524,38.906,29.953,38.108z
	 M35.063,42.005c-0.224,5.278,0.568,10.69,2.379,14.995H20.558c2.309-5.49,2.965-12.78,1.966-19.294
	c2.376,0.483,4.602,1.21,6.523,2.186C30.838,40.801,32.885,41.498,35.063,42.005z M2,20.558c3.831,1.612,8.539,2.421,13.25,2.421
	c0.174,0,0.348-0.01,0.523-0.013c0.515,2.545,1.291,4.93,2.336,6.986c0.814,1.602,1.445,3.423,1.916,5.36
	C13.846,34.577,7.136,35.281,2,37.442V20.558z M19.641,2h18.719c1.742,3.698,2.628,8.4,2.643,13.124
	c-4.374,0.294-8.601,1.281-11.956,2.985c-3.251,1.651-7.374,2.59-11.622,2.83C16.432,14.489,17.176,7.233,19.641,2z M39.892,29.953
	c1.831-3.606,2.843-8.217,3.045-12.939c5.034-0.106,10.12,0.769,14.063,2.627v18.719c-5.483,2.583-13.184,3.267-19.853,2.054
	C37.482,36.58,38.392,32.906,39.892,29.953z M57,17.442c-4.041-1.7-9.058-2.496-14.026-2.402C42.951,10.398,42.146,5.774,40.558,2
	H57V17.442z M17.442,2c-2.275,5.407-2.944,12.562-2.008,19.001C10.607,21.024,5.779,20.139,2,18.359V2H17.442z M2,39.641
	c5.103-2.403,12.125-3.167,18.45-2.284c1.161,6.62,0.465,14.217-2.091,19.643H2V39.641z M39.641,57
	c-1.923-4.083-2.795-9.392-2.614-14.597c2.177,0.376,4.447,0.576,6.723,0.576c4.712,0,9.419-0.809,13.25-2.421V57H39.641z"/>
<g>
</g>
<g>
</g>
<g>
</g>
<g>
</g>
<g>
</g>
<g>
</g>
<g>
</g>
<g>
</g>
<g>
</g>
<g>
</g>
<g>
</g>
<g>
</g>
<g>
</g>
<g>
</g>
<g>
</g>
</svg>
